<?xml version="1.0" standalone="no"?>
<!DOCTYPE svg PUBLIC "-//W3C//DTD SVG 20010904//EN"
 "http://www.w3.org/TR/2001/REC-SVG-20010904/DTD/svg10.dtd">
<svg version="1.0" xmlns="http://www.w3.org/2000/svg"
 width="256.000000pt" height="256.000000pt" viewBox="0 0 256.000000 256.000000"
 preserveAspectRatio="xMidYMid meet">
<metadata>
Created by potrace 1.14, written by Peter Selinger 2001-2017
</metadata>
<g transform="translate(0.000000,256.000000) scale(0.100000,-0.100000)"
fill="#000000" stroke="none">
<path d="M1200 2440 c-63 -23 -119 -42 -125 -44 -11 -3 -19 -6 -110 -43 -33
-14 -67 -26 -75 -28 -8 -2 -41 -15 -72 -29 -32 -14 -58 -23 -58 -21 0 3 -10
-1 -23 -10 -12 -8 -32 -16 -42 -18 -11 -2 -36 -10 -56 -19 -20 -9 -45 -19 -57
-22 -53 -17 -8 -53 108 -85 40 -11 75 -23 79 -26 3 -4 7 -25 9 -48 5 -77 8
-92 17 -106 6 -11 -1 -22 -26 -40 -156 -119 -304 -325 -353 -496 -10 -33 -20
-67 -23 -75 -3 -8 -7 -26 -8 -40 -2 -14 -6 -43 -10 -65 -14 -79 -5 -267 14
-302 15 -28 31 10 46 107 8 58 21 132 29 165 8 33 12 63 10 67 -3 5 -1 8 4 8
6 0 13 12 17 28 17 71 114 236 178 304 9 10 17 21 18 26 0 4 32 32 71 62 38
30 75 60 82 65 6 6 23 16 36 24 14 8 45 26 70 41 25 15 48 27 53 28 4 1 24 9
45 18 80 34 85 36 142 48 11 3 25 8 31 11 20 13 225 26 243 16 6 -2 24 -6 40
-7 17 -1 43 -7 59 -13 15 -6 27 -8 27 -6 0 7 141 -45 192 -71 27 -13 49 -24
50 -23 2 1 49 -22 106 -50 102 -51 127 -56 115 -23 -12 30 -91 114 -147 156
-22 17 -34 32 -28 34 29 9 1 131 -37 159 -19 14 -19 14 85 18 92 4 184 38 184
68 0 14 -44 36 -115 57 -22 7 -53 20 -70 28 -16 9 -36 15 -42 14 -7 -2 -13 2
-13 8 0 5 -3 9 -7 9 -5 -1 -11 0 -15 1 -5 1 -11 3 -15 4 -29 7 -83 31 -83 38
0 4 -3 7 -7 7 -5 -1 -11 0 -15 1 -5 1 -12 4 -18 5 -5 1 -12 4 -15 5 -3 1 -8 3
-12 5 -5 1 -21 7 -38 14 -16 7 -66 26 -110 43 -179 67 -193 68 -335 18z"/>
<path d="M2074 2078 c-4 -7 -9 -37 -10 -68 -2 -30 -5 -68 -9 -85 -20 -99 -7
-159 35 -161 35 -2 49 23 43 76 -3 25 -6 61 -8 80 -1 19 -4 35 -5 35 -1 0 -3
20 -4 45 -3 75 -22 110 -42 78z"/>
<path d="M1384 1735 c-3 -8 -14 -17 -24 -20 -31 -10 -36 -65 -6 -65 6 0 21
-14 33 -32 l22 -31 12 26 c7 15 23 34 36 42 28 19 30 41 3 50 -11 3 -25 15
-30 26 -13 22 -38 25 -46 4z"/>
<path d="M822 1676 c-35 -19 -83 -54 -106 -77 -23 -24 -52 -51 -64 -59 -12 -8
-22 -18 -22 -23 0 -5 -14 -29 -31 -53 -40 -59 -95 -178 -104 -226 -4 -21 -11
-38 -17 -38 -5 0 -7 -4 -3 -9 3 -5 0 -31 -6 -58 -30 -132 -2 -364 58 -478 11
-22 28 -54 37 -71 9 -18 23 -37 31 -44 8 -7 15 -18 15 -24 0 -6 9 -18 20 -26
11 -8 20 -19 20 -24 0 -8 37 -45 91 -91 52 -43 105 -79 146 -97 24 -10 43 -24
43 -29 0 -6 9 -8 19 -4 11 3 26 -1 37 -12 10 -10 19 -16 21 -15 4 4 99 -12
106 -18 1 -1 31 -3 67 -4 59 -2 90 6 90 23 0 6 -49 39 -60 39 -3 1 -16 5 -30
11 -34 13 -14 14 30 0 53 -16 72 -20 103 -21 15 -1 29 -4 31 -7 5 -8 149 -5
201 4 22 4 48 8 58 8 9 1 17 4 17 8 0 3 17 9 37 12 71 12 217 94 301 170 44
40 81 77 81 82 1 6 15 28 31 49 31 40 37 61 21 70 -4 3 -40 -21 -78 -54 -39
-32 -73 -56 -77 -53 -3 4 -6 2 -6 -4 0 -12 -107 -81 -173 -111 -106 -49 -257
-68 -396 -49 -130 17 -318 93 -377 151 -8 9 -20 16 -26 16 -7 0 -6 5 2 15 6 8
15 14 18 13 10 -2 45 14 58 26 6 6 30 27 54 46 23 19 48 46 55 60 7 14 24 36
37 50 12 13 22 28 21 32 -2 5 2 8 7 8 6 0 10 6 10 14 0 7 7 19 16 27 13 11 14
9 8 -17 -4 -16 -7 -35 -7 -44 0 -8 -4 -20 -9 -27 -5 -7 -7 -17 -3 -23 15 -25
50 -3 92 56 31 45 44 132 42 286 -1 94 3 158 16 218 9 47 20 101 24 120 l6 35
13 -55 c32 -135 42 -225 40 -357 -1 -108 2 -149 16 -190 10 -29 22 -53 27 -53
5 0 9 -6 9 -13 0 -19 43 -57 63 -57 19 0 23 25 6 35 -6 4 -8 13 -5 21 3 7 2
16 -3 18 -4 3 -8 21 -9 41 -1 21 3 33 8 30 6 -3 10 -13 10 -21 0 -8 5 -14 11
-14 5 0 8 -4 5 -8 -3 -5 4 -18 14 -30 11 -12 20 -24 20 -26 0 -9 33 -48 82
-95 60 -59 70 -67 96 -75 12 -4 22 -11 22 -15 0 -10 39 -11 45 -1 3 5 -12 26
-32 48 -44 46 -73 80 -73 87 0 3 -14 33 -31 67 -17 35 -32 72 -34 83 -2 11 -6
31 -10 45 -4 14 -7 32 -7 40 0 8 -2 22 -5 30 -3 8 -7 24 -9 35 -1 11 -4 34 -7
52 -8 60 33 47 105 -31 21 -23 41 -49 44 -59 11 -35 29 -11 27 37 -2 66 -44
145 -111 211 l-56 55 22 20 c18 18 25 19 43 8 18 -11 23 -10 33 6 6 11 21 30
33 43 l23 24 -20 37 c-10 20 -24 49 -30 63 -8 19 -27 31 -73 48 -73 25 -82 24
-83 -9 -1 -14 -2 -27 -3 -30 -2 -3 -4 -13 -6 -24 -2 -10 -13 -25 -25 -33 -12
-9 -27 -28 -34 -43 l-11 -28 -22 24 c-12 13 -19 24 -17 24 3 0 -3 9 -13 19
-10 11 -27 45 -37 76 -11 30 -24 59 -30 64 -15 12 -55 -5 -62 -26 -19 -55 -65
-140 -84 -151 -17 -11 -21 -10 -27 5 -3 10 -20 30 -36 46 -17 15 -27 27 -22
27 5 0 4 5 -2 11 -8 8 -8 20 -3 34 6 17 5 27 -5 35 -15 13 -55 5 -55 -11 0 -5
-3 -8 -7 -8 -48 8 -86 -22 -121 -94 -24 -49 -24 -77 2 -77 8 0 19 -13 24 -29
9 -25 17 -30 48 -33 21 -2 39 -8 41 -14 2 -6 -21 -35 -50 -65 -64 -64 -96
-125 -104 -196 -5 -44 -3 -53 10 -53 9 0 22 8 29 17 23 30 121 123 126 119 3
-4 6 -86 2 -96 -1 -3 -3 -14 -5 -25 -2 -11 -7 -36 -11 -55 -5 -19 -8 -39 -9
-45 0 -5 -4 -16 -8 -22 -5 -7 -5 -17 -2 -23 3 -5 2 -10 -3 -10 -9 0 -24 -40
-21 -56 0 -4 -3 -10 -8 -13 -5 -3 -21 -27 -36 -52 -35 -62 -95 -121 -112 -111
-7 4 -27 25 -44 47 -17 22 -35 45 -40 51 -6 7 -7 15 -4 18 4 3 2 6 -4 6 -10 0
-86 156 -86 178 0 6 -5 12 -10 12 -6 0 -8 3 -4 6 3 3 -3 31 -14 62 -11 31 -22
69 -24 84 -3 15 -10 39 -15 54 -35 90 -56 -123 -24 -246 9 -36 38 -110 64
-165 37 -78 65 -118 126 -185 43 -47 94 -96 114 -109 86 -59 117 -78 148 -91
17 -7 32 -16 32 -21 0 -4 -12 -2 -27 5 -16 8 -53 26 -83 40 -30 15 -72 37 -94
50 -72 44 -216 195 -216 227 0 7 -12 30 -26 50 -14 21 -27 43 -28 51 -2 7 -8
27 -15 43 -20 51 -22 59 -28 100 -3 22 -9 50 -14 63 -10 27 -12 225 -2 235 3
4 8 22 10 39 3 33 5 40 38 113 10 22 18 43 17 48 -1 4 3 7 8 7 6 0 10 5 10 11
0 16 87 134 145 198 129 142 128 176 -3 107z m928 -346 c0 -5 -4 -10 -9 -10
-6 0 -13 5 -16 10 -3 6 1 10 9 10 9 0 16 -4 16 -10z"/>
</g>
</svg>
